<svg xmlns="http://www.w3.org/2000/svg" width="38.571" height="10" viewBox="0 0 38.571 10">
    <g>
        <path fill="#40bd79" d="M10 19.3a27.6 27.6 0 0 1-1.176 8.212 34.847 34.847 0 0 1-3.561 7.73 10.5 10.5 0 0 1-2.13 2.771A3.585 3.585 0 0 1 1 38.571q-1 0-1-.541a12.672 12.672 0 0 1 .845-1.939q.842-1.757 1.757-4.186a38.286 38.286 0 0 0 1.587-5.713 34.36 34.36 0 0 0 .671-6.9 34.123 34.123 0 0 0-.681-6.927 38.817 38.817 0 0 0-1.587-5.7Q1.685 4.257.845 2.48A14.048 14.048 0 0 1 0 .542Q0 0 1 0a3.76 3.76 0 0 1 2.173.532 9.9 9.9 0 0 1 2.09 2.762A41.037 41.037 0 0 1 7.33 7.169a30.835 30.835 0 0 1 1.47 3.814 26.2 26.2 0 0 1 .9 3.975A30.086 30.086 0 0 1 10 19.3z" transform="rotate(90 19.285 19.286)"/>
    </g>
</svg>
